<?xml version="1.0" encoding="iso-8859-1"?>
<!-- Generator: Adobe Illustrator 19.0.0, SVG Export Plug-In . SVG Version: 6.00 Build 0)  -->
<svg version="1.1" id="Capa_1" xmlns="http://www.w3.org/2000/svg" xmlns:xlink="http://www.w3.org/1999/xlink" x="0px" y="0px"
	 viewBox="0 0 512 512" style="enable-background:new 0 0 512 512;" xml:space="preserve">
<path style="fill:#FFD178;" d="M237.497,210c0-4.143,3.358-7.5,7.5-7.5h40c28.949,0,52.5-23.552,52.5-52.5V40
	c0-4.143,3.358-7.5,7.5-7.5s7.5,3.357,7.5,7.5v110c0,37.22-30.28,67.5-67.5,67.5h-40C240.855,217.5,237.497,214.143,237.497,210z
	 M380,248.5H250c-4.142,0-7.5,3.357-7.5,7.5s3.358,7.5,7.5,7.5h130c4.142,0,7.5-3.357,7.5-7.5S384.142,248.5,380,248.5z
	 M284.997,294.5h-40c-4.142,0-7.5,3.357-7.5,7.5s3.358,7.5,7.5,7.5h40c28.949,0,52.5,23.552,52.5,52.5v110
	c0,4.143,3.358,7.5,7.5,7.5s7.5-3.357,7.5-7.5V362C352.497,324.78,322.217,294.5,284.997,294.5z"/>
<path style="fill:#FFECA1;" d="M280,78.5V20c0-11.046,8.954-20,20-20h90c11.046,0,20,8.954,20,20v58.5c0,11.046-8.954,20-20,20h-90
	C288.954,98.5,280,89.546,280,78.5z M390,413.5h-90c-11.046,0-20,8.954-20,20V492c0,11.046,8.954,20,20,20h90
	c11.046,0,20-8.954,20-20v-58.5C410,422.454,401.046,413.5,390,413.5z M492,206.75h-90c-11.046,0-20,8.954-20,20v58.5
	c0,11.046,8.954,20,20,20h90c11.046,0,20-8.954,20-20v-58.5C512,215.704,503.046,206.75,492,206.75z"/>
<path style="fill:#FFD178;" d="M410,20v58.5c0,11.046-8.954,20-20,20h-3.775c2.373-3.956,3.775-8.81,3.775-14.061V14.061
	C390,8.81,388.598,3.956,386.225,0H390C401.046,0,410,8.954,410,20z M492,206.75h-3.775c2.373,3.956,3.775,8.81,3.775,14.061v70.378
	c0,5.251-1.402,10.105-3.775,14.061H492c11.046,0,20-8.954,20-20v-58.5C512,215.704,503.046,206.75,492,206.75z M390,413.5h-3.775
	c2.373,3.956,3.775,8.81,3.775,14.061v70.378c0,5.251-1.402,10.105-3.775,14.061H390c11.046,0,20-8.954,20-20v-58.5
	C410,422.454,401.046,413.5,390,413.5z"/>
<g>
	<path style="fill:#FFB05F;" d="M353.5,49.25c0,4.143-3.358,7.5-7.5,7.5h-1c-4.142,0-7.5-3.357-7.5-7.5s3.358-7.5,7.5-7.5h1
		C350.142,41.75,353.5,45.107,353.5,49.25z M320.5,41.75h-1c-4.142,0-7.5,3.357-7.5,7.5s3.358,7.5,7.5,7.5h1
		c4.142,0,7.5-3.357,7.5-7.5S324.642,41.75,320.5,41.75z M370.5,41.75h-1c-4.142,0-7.5,3.357-7.5,7.5s3.358,7.5,7.5,7.5h1
		c4.142,0,7.5-3.357,7.5-7.5S374.642,41.75,370.5,41.75z M346,455.25h-1c-4.142,0-7.5,3.357-7.5,7.5s3.358,7.5,7.5,7.5h1
		c4.142,0,7.5-3.357,7.5-7.5S350.142,455.25,346,455.25z M320.5,455.25h-1c-4.142,0-7.5,3.357-7.5,7.5s3.358,7.5,7.5,7.5h1
		c4.142,0,7.5-3.357,7.5-7.5S324.642,455.25,320.5,455.25z M370.5,455.25h-1c-4.142,0-7.5,3.357-7.5,7.5s3.358,7.5,7.5,7.5h1
		c4.142,0,7.5-3.357,7.5-7.5S374.642,455.25,370.5,455.25z M448,248.5h-1c-4.142,0-7.5,3.357-7.5,7.5s3.358,7.5,7.5,7.5h1
		c4.142,0,7.5-3.357,7.5-7.5S452.142,248.5,448,248.5z M422.5,248.5h-1c-4.142,0-7.5,3.357-7.5,7.5s3.358,7.5,7.5,7.5h1
		c4.142,0,7.5-3.357,7.5-7.5S426.642,248.5,422.5,248.5z M472.5,248.5h-1c-4.142,0-7.5,3.357-7.5,7.5s3.358,7.5,7.5,7.5h1
		c4.142,0,7.5-3.357,7.5-7.5S476.642,248.5,472.5,248.5z"/>
	<path style="fill:#FFB05F;" d="M20,171.5h210c11.046,0,20,8.954,20,20v129c0,11.046-8.954,20-20,20H20c-11.046,0-20-8.954-20-20
		v-129C0,180.454,8.954,171.5,20,171.5z"/>
</g>
<path style="fill:#FF904E;" d="M250,191.5v129c0,11.046-8.954,20-20,20h-25.003c11.046,0,20-8.954,20-20v-129
	c0-11.046-8.954-20-20-20H230C241.046,171.5,250,180.454,250,191.5z"/>
<path style="fill:#FF733D;" d="M57.5,226c0-4.143,3.358-7.5,7.5-7.5h120c4.142,0,7.5,3.357,7.5,7.5s-3.358,7.5-7.5,7.5H65
	C60.858,233.5,57.5,230.143,57.5,226z M185,248.5H65c-4.142,0-7.5,3.357-7.5,7.5s3.358,7.5,7.5,7.5h120c4.142,0,7.5-3.357,7.5-7.5
	S189.142,248.5,185,248.5z M149,278.5H65c-4.142,0-7.5,3.357-7.5,7.5s3.358,7.5,7.5,7.5h84c4.142,0,7.5-3.357,7.5-7.5
	S153.142,278.5,149,278.5z"/>
<g>
</g>
<g>
</g>
<g>
</g>
<g>
</g>
<g>
</g>
<g>
</g>
<g>
</g>
<g>
</g>
<g>
</g>
<g>
</g>
<g>
</g>
<g>
</g>
<g>
</g>
<g>
</g>
<g>
</g>
</svg>
